<?xml version="1.0" encoding="UTF-8" standalone="no"?>
<svg
   width="1280"
   height="640"
   viewBox="0 0 338.667 169.333"
   version="1.1"
   id="svg5"
   sodipodi:docname="social.svg"
   inkscape:version="1.1.2 (b8e25be833, 2022-02-05)"
   inkscape:export-filename="social.png"
   inkscape:export-xdpi="96"
   inkscape:export-ydpi="96"
   xmlns:inkscape="http://www.inkscape.org/namespaces/inkscape"
   xmlns:sodipodi="http://sodipodi.sourceforge.net/DTD/sodipodi-0.dtd"
   xmlns:xlink="http://www.w3.org/1999/xlink"
   xmlns="http://www.w3.org/2000/svg"
   xmlns:svg="http://www.w3.org/2000/svg">
  <sodipodi:namedview
     id="namedview70"
     pagecolor="#ffffff"
     bordercolor="#666666"
     borderopacity="1.0"
     inkscape:pageshadow="2"
     inkscape:pageopacity="1"
     inkscape:pagecheckerboard="0"
     showgrid="false"
     inkscape:zoom="0.70710678"
     inkscape:cx="627.91082"
     inkscape:cy="323.1478"
     inkscape:window-width="1920"
     inkscape:window-height="1000"
     inkscape:window-x="-9"
     inkscape:window-y="-9"
     inkscape:window-maximized="1"
     inkscape:current-layer="svg5"
     showguides="false"
     inkscape:guide-bbox="true" />
  <defs
     id="defs2">
    <linearGradient
       inkscape:collect="always"
       id="linearGradient2764">
      <stop
         style="stop-color:#d9d9d9;stop-opacity:1"
         offset="0"
         id="stop2756" />
      <stop
         style="stop-color:#bebebe;stop-opacity:1;"
         offset="0.3700254"
         id="stop2758" />
      <stop
         style="stop-color:#b0b0b0;stop-opacity:1;"
         offset="0.76979816"
         id="stop2760" />
      <stop
         style="stop-color:#9c9c9c;stop-opacity:1"
         offset="1"
         id="stop2762" />
    </linearGradient>
    <linearGradient
       inkscape:collect="always"
       id="linearGradient1130">
      <stop
         style="stop-color:#d9d9d9;stop-opacity:1"
         offset="0"
         id="stop1126" />
      <stop
         style="stop-color:#bebebe;stop-opacity:1;"
         offset="0.1320764"
         id="stop2334" />
      <stop
         style="stop-color:#b0b0b0;stop-opacity:1;"
         offset="0.83223486"
         id="stop2204" />
      <stop
         style="stop-color:#949494;stop-opacity:1"
         offset="1"
         id="stop1128" />
    </linearGradient>
    <clipPath
       id="clipPath3947"
       clipPathUnits="userSpaceOnUse">
      <ellipse
         ry="212.236"
         rx="203.243"
         cy="256.471"
         cx="256.521"
         id="ellipse3949"
         style="opacity:1;fill:#ffc82d;fill-opacity:1;stroke:none;stroke-width:0;stroke-linecap:butt;stroke-linejoin:miter;stroke-miterlimit:4;stroke-dasharray:none;stroke-dashoffset:0;stroke-opacity:1" />
    </clipPath>
    <clipPath
       id="clipPath4806"
       clipPathUnits="userSpaceOnUse">
      <circle
         r="211.627"
         cy="248.915"
         cx="249.461"
         id="circle4808"
         style="opacity:1;fill:#f6c439;fill-opacity:1;stroke:none;stroke-width:0;stroke-linecap:butt;stroke-linejoin:miter;stroke-miterlimit:4;stroke-dasharray:none;stroke-dashoffset:0;stroke-opacity:1" />
    </clipPath>
    <clipPath
       id="clipPath4837"
       clipPathUnits="userSpaceOnUse">
      <circle
         r="207.136"
         cy="256"
         cx="256"
         id="circle4839"
         style="opacity:1;fill:#0fa15f;fill-opacity:1;stroke:none;stroke-width:0;stroke-linecap:butt;stroke-linejoin:miter;stroke-miterlimit:4;stroke-dasharray:none;stroke-dashoffset:0;stroke-opacity:1" />
    </clipPath>
    <clipPath
       id="clipPath5050"
       clipPathUnits="userSpaceOnUse">
      <path
         id="path5052"
         d="M256 45.268A210.732 210.732 0 0 0 45.268 256 210.732 210.732 0 0 0 256 466.732 210.732 210.732 0 0 0 466.732 256 210.732 210.732 0 0 0 256 45.268Zm0 111.843A98.889 98.889 0 0 1 354.889 256 98.889 98.889 0 0 1 256 354.889 98.889 98.889 0 0 1 157.111 256 98.889 98.889 0 0 1 256 157.111Z"
         style="opacity:1;fill:#f9f9f9;fill-opacity:1;stroke:none;stroke-width:0;stroke-linecap:butt;stroke-linejoin:miter;stroke-miterlimit:4;stroke-dasharray:none;stroke-dashoffset:0;stroke-opacity:1" />
    </clipPath>
    <clipPath
       id="clipPath5127"
       clipPathUnits="userSpaceOnUse">
      <path
         id="path5129"
         d="M256 45.268A210.732 210.732 0 0 0 45.268 256 210.732 210.732 0 0 0 256 466.732 210.732 210.732 0 0 0 466.732 256 210.732 210.732 0 0 0 256 45.268Zm0 111.843A98.889 98.889 0 0 1 354.889 256 98.889 98.889 0 0 1 256 354.889 98.889 98.889 0 0 1 157.111 256 98.889 98.889 0 0 1 256 157.111Z"
         style="opacity:1;fill:#f9f9f9;fill-opacity:1;stroke:none;stroke-width:0;stroke-linecap:butt;stroke-linejoin:miter;stroke-miterlimit:4;stroke-dasharray:none;stroke-dashoffset:0;stroke-opacity:1" />
    </clipPath>
    <path
       id="rect26256"
       d="M-70.925 593.312h325.981v60.013H-70.925z" />
    <path
       id="rect5982"
       d="M95.476 171.856h327.345v107.751H95.476z" />
    <radialGradient
       inkscape:collect="always"
       xlink:href="#linearGradient2764"
       id="radialGradient2754"
       gradientUnits="userSpaceOnUse"
       gradientTransform="matrix(1.1276836,1.4634887,-1.3748807,1.0593493,416.4745,196.70945)"
       cx="-157.82828"
       cy="290.91357"
       fx="-157.82828"
       fy="290.91357"
       r="40.056999" />
    <filter
       style="color-interpolation-filters:sRGB;"
       inkscape:label="Drop Shadow"
       id="filter6208"
       x="-0.049196599"
       y="-0.049196599"
       width="1.1158683"
       height="1.1158683">
      <feFlood
         flood-opacity="0.643137"
         flood-color="rgb(0,0,0)"
         result="flood"
         id="feFlood6198" />
      <feComposite
         in="flood"
         in2="SourceGraphic"
         operator="in"
         result="composite1"
         id="feComposite6200" />
      <feGaussianBlur
         in="composite1"
         stdDeviation="1.4"
         result="blur"
         id="feGaussianBlur6202" />
      <feOffset
         dx="1.4"
         dy="1.4"
         result="offset"
         id="feOffset6204" />
      <feComposite
         in="SourceGraphic"
         in2="offset"
         operator="over"
         result="composite2"
         id="feComposite6206" />
    </filter>
    <linearGradient
       inkscape:collect="always"
       xlink:href="#linearGradient1130"
       id="linearGradient6362"
       x1="-116.3057"
       y1="332.53162"
       x2="-161.47731"
       y2="273.90866"
       gradientUnits="userSpaceOnUse" />
    <filter
       style="color-interpolation-filters:sRGB;"
       inkscape:label="Drop Shadow"
       id="filter10208"
       x="-0.13483606"
       y="-0.13503054"
       width="1.2696721"
       height="1.2700611">
      <feFlood
         flood-opacity="1"
         flood-color="rgb(255,255,255)"
         result="flood"
         id="feFlood10198" />
      <feComposite
         in="flood"
         in2="SourceGraphic"
         operator="in"
         result="composite1"
         id="feComposite10200" />
      <feGaussianBlur
         in="composite1"
         stdDeviation="14.4"
         result="blur"
         id="feGaussianBlur10202" />
      <feOffset
         dx="0"
         dy="0"
         result="offset"
         id="feOffset10204" />
      <feComposite
         in="SourceGraphic"
         in2="offset"
         operator="over"
         result="composite2"
         id="feComposite10206" />
    </filter>
  </defs>
  <g
     id="logo">
    <g
       id="g57961"
       transform="matrix(0.45513,0,0,0.45513,121.691,-5.902)">
      <g
         id="g45"
         transform="matrix(0.26458,0,0,0.26458,63.606,31.5)">
        <path
           style="opacity:1;fill:#91b0e8;fill-opacity:1;stroke:none;stroke-width:0;stroke-linecap:butt;stroke-linejoin:miter;stroke-miterlimit:4;stroke-dasharray:none;stroke-dashoffset:0;stroke-opacity:1"
           d="m 455.383,151.674 c -315.143,251.772 -157.572,125.886 0,0 z m 0,0 -182.158,0.07 c 50.16,8.227 88.436,51.768 88.436,104.256 a 105.662,105.662 0 0 1 -26.665,70.02 l -90.34,154.696 c 3.758,0.187 7.54,0.284 11.344,0.284 124.264,0 225,-100.736 225,-225 0,-37.655 -9.265,-73.14 -25.617,-104.326 z"
           id="path4797" />
        <path
           style="fill:#396bd7;fill-opacity:1;stroke-width:1.19056"
           clip-path="none"
           d="M 256,31 C 175.107,31 104.196,73.696 64.543,137.775 l 87.802,138.276 c 0.407,6.581 -2.001,-19.578 -2.006,-20.051 0,-58.355 47.306,-105.66 105.661,-105.661 5.479,0.044 16.793,1.148 22.199,2.04 l 177.184,-0.705 C 417.773,79.944 342.61,31 256,31 Z M 64.516,137.818 c -54.566,261.01 -27.283,130.505 0,0 z"
           id="path3923" />
        <path
           style="fill:#6199f6;fill-opacity:1;stroke-width:1.19056"
           clip-path="none"
           d="M 64.543,137.775 C 43.283,172.13 31,212.629 31,256 31,376.46 125.663,474.807 244.656,480.716 L 334.996,326.02 A 105.662,105.662 0 0 1 256,361.661 c -50.591,-0.042 -94.054,-35.938 -103.655,-85.61 z"
           id="path3923-1" />
        <circle
           style="opacity:1;fill:#ffffff;fill-opacity:1;stroke:none;stroke-width:0;stroke-linecap:butt;stroke-linejoin:miter;stroke-miterlimit:4;stroke-dasharray:none;stroke-dashoffset:0;stroke-opacity:1"
           id="path4162"
           cx="256"
           cy="256"
           r="105.662" />
        <circle
           style="opacity:1;fill:#4688f4;fill-opacity:1;stroke:none;stroke-width:0;stroke-linecap:butt;stroke-linejoin:miter;stroke-miterlimit:4;stroke-dasharray:none;stroke-dashoffset:0;stroke-opacity:1"
           id="path3956"
           cx="256"
           cy="256"
           clip-path="none"
           r="87.188004" />
        <path
           style="opacity:0.1;fill:#367100;fill-opacity:1;stroke:none;stroke-width:0;stroke-linecap:butt;stroke-linejoin:miter;stroke-miterlimit:4;stroke-dasharray:none;stroke-dashoffset:0;stroke-opacity:1"
           d="m 76.52,145.275 82.558,129.44 31.168,-34.482 z m 366.238,12.965 -165.967,0.71 16.342,37.877 z M 275.355,308.913 245.373,466.486 329.928,321.678 Z"
           id="rect5020-5-5"
           clip-path="url(#clipPath5127)"
           transform="matrix(1.0677,0,0,1.0677,-17.332,-17.332)" />
      </g>
      <g
         class="fa-group"
         id="g315"
         transform="matrix(0.26458,0,0,0.26458,18.488,32.229)">
        <path
           class="fa-secondary"
           fill="currentColor"
           d="m 86.1,428.1 c 0,0.8 13.2,-5.4 34.9,-40.2 -6.7,6.3 -29.1,24.5 -34.9,40.2 z m 93.8,-218.9 c -2.9,0 -3,30.9 2,46.9 5.6,-10 6.4,-46.9 -2,-46.9 z m 80.2,142.1 c 37.1,15.8 42.8,9 42.8,9 4.1,-2.7 -2.5,-11.9 -42.8,-9 z m -79.9,-48 c -7.7,20.2 -17.3,43.3 -28.4,62.7 18.3,-7 39,-17.2 62.9,-21.9 -12.7,-9.6 -24.9,-23.4 -34.5,-40.8 z M 272,128 A 16,16 0 0 1 256,112 V 0 H 24 A 23.94,23.94 0 0 0 0,23.88 V 488 a 23.94,23.94 0 0 0 23.88,24 H 360 a 23.94,23.94 0 0 0 24,-23.88 V 128 Z m 21.9,254.4 c -16.9,0 -42.3,-7.7 -64,-19.5 -24.9,4.1 -53.2,14.7 -79,23.2 -25.4,43.8 -43.2,61.8 -61.1,61.8 -5.5,0 -15.9,-3.1 -21.5,-10 -19.1,-23.5 27.4,-54.1 54.5,-68 0.1,0 0.1,-0.1 0.2,-0.1 12.1,-21.2 29.2,-58.2 40.8,-85.8 -8.5,-32.9 -13.1,-58.7 -8.1,-77 5.4,-19.7 43.1,-22.6 47.8,6.8 5.4,17.6 -1.7,45.7 -6.2,64.2 9.4,24.8 22.7,41.6 42.7,53.8 19.3,-2.5 59.7,-6.4 73.6,7.2 11.5,11.4 9.5,43.4 -19.7,43.4 z"
           opacity=".4"
           id="path311"
           style="opacity:1;fill:#fec7c3;fill-opacity:1" />
        <path
           id="path1252"
           d="m 197.908,552.486 c -10.687,-0.487 -21.462,5.164 -24.162,15.014 -5,18.3 -0.4,44.1 8.1,77 -11.6,27.6 -28.7,64.599 -40.8,85.799 -0.1,0 -0.1,0.1 -0.2,0.1 -27.1,13.9 -73.6,44.5 -54.5,68 5.6,6.9 16,10 21.5,10 17.9,0 35.7,-18 61.1,-61.8 25.8,-8.5 54.1,-19.1 79,-23.2 21.7,11.8 47.1,19.5 64,19.5 29.2,0 31.2,-31.999 19.7,-43.399 -13.9,-13.6 -54.3,-9.701 -73.6,-7.201 -20,-12.2 -33.3,-28.999 -42.7,-53.799 4.5,-18.5 11.6,-46.601 6.2,-64.201 -2.35,-14.7 -12.95,-21.325 -23.638,-21.813 z m 0.037,17.213 c 8.4,0 7.6,36.9 2,46.9 -5,-16 -4.9,-46.9 -2,-46.9 z m 0.301,94.1 c 9.6,17.4 21.8,31.2 34.5,40.8 -23.9,4.7 -44.6,14.901 -62.9,21.901 11.1,-19.4 20.7,-42.501 28.4,-62.701 z m 93.479,47.443 c 28.205,-0.145 32.808,7.194 29.22,9.557 0,0 -5.699,6.8 -42.799,-9 5.038,-0.363 9.55,-0.536 13.579,-0.557 z m -152.678,37.156 c -21.7,34.8 -34.9,41.002 -34.9,40.202 5.8,-15.7 28.2,-33.902 34.9,-40.202 z"
           transform="translate(-18.046,-360.5)"
           style="fill:#f40f02;fill-opacity:1;filter:url(#filter10208)" />
        <path
           d="M 377,105 279.1,7 a 24,24 0 0 0 -17,-7 H 256 v 112 a 16,16 0 0 0 16,16 h 112 v -6.1 A 23.9,23.9 0 0 0 377,105 Z"
           id="path313"
           style="fill:#fea5a2;fill-opacity:1" />
      </g>
    </g>
    <text
       xml:space="preserve"
       transform="matrix(0.48904,0,0,0.48904,131.049,-214.81)"
       id="text26254"
       style="font-size:40px;line-height:1.25;font-family:Roboto;-inkscape-font-specification:Roboto;white-space:pre;shape-inside:url(#rect26256);fill:#4d4d4d"><tspan
         x="-70.925781"
         y="628.3125"
         id="tspan971"><tspan
           style="font-family:'Roboto Black';-inkscape-font-specification:'Roboto Black, '"
           id="tspan969">PDFium binaries</tspan></tspan></text>
  </g>
  <g
     id="g10933">
    <use
       x="0"
       y="0"
       xlink:href="#path31940"
       id="use56971"
       transform="translate(126.77083,2.08e-4)"
       width="100%"
       height="100%" />
    <path
       fill="currentColor"
       d="m 222.98065,110.95966 8.24241,-1.13601 v 7.96478 h -8.24241 z m 0,14.57326 8.24241,1.136 v -7.86646 h -8.24241 z m 9.14948,1.25707 10.96409,1.51285 v -9.49993 h -10.96409 z m 0,-17.0874 v 8.08584 h 10.96409 v -9.5987 z"
       id="windows"
       style="fill:#ffffff;stroke-width:0.0448965" />
  </g>
  <g
     id="g10921">
    <circle
       style="fill:url(#radialGradient2754);fill-opacity:1;stroke:url(#linearGradient6362);stroke-width:1.16267262;stroke-miterlimit:4;stroke-dasharray:none;filter:url(#filter6208)"
       id="path31940"
       cx="-139.793"
       cy="301.224"
       r="40.056999"
       transform="matrix(0.45513,0,0,0.45513,169.572,-18.85)" />
    <path
       d="m 94.383614,123.85146 h 1.930661 v -8.21828 h -1.930661 z m 0.961234,-9.29603 c 0.605323,0 1.077748,-0.46514 1.077748,-1.0468 0,-0.58894 -0.47288,-1.05454 -1.077748,-1.05454 -0.596675,0 -1.069555,0.4656 -1.069555,1.05454 0,0.58166 0.47288,1.0468 1.069555,1.0468 z m 7.397232,-2.07812 c -3.264196,0 -5.311371,2.22558 -5.311371,5.7847 0,3.55866 2.047175,5.77605 5.311371,5.77605 3.25645,0 5.30363,-2.21739 5.30363,-5.77651 0,-3.55911 -2.04718,-5.78424 -5.30363,-5.78424 z m 0,1.70582 c 1.99255,0 3.26419,1.58204 3.26419,4.07842 0,2.48911 -1.27164,4.07069 -3.26419,4.07069 -2.0003,0 -3.264196,-1.58158 -3.264196,-4.07069 0,-2.49638 1.263896,-4.07796 3.264196,-4.07796 z m 6.11785,6.52111 c 0.0851,2.06219 1.77547,3.33382 4.34968,3.33382 2.70575,0 4.41158,-1.33353 4.41158,-3.45807 0,-1.66715 -0.96124,-2.60517 -3.23279,-3.12447 l -1.28711,-0.29493 c -1.37267,-0.32541 -1.93885,-0.76006 -1.93885,-1.5042 0,-0.93029 0.85337,-1.55063 2.11681,-1.55063 1.27937,0 2.15549,0.62808 2.24834,1.67488 h 1.9079 c -0.0469,-1.96935 -1.67488,-3.30288 -4.14031,-3.30288 -2.43495,0 -4.16399,1.34127 -4.16399,3.32609 0,1.59751 0.97717,2.58969 3.03936,3.06303 l 1.45004,0.34089 c 1.41091,0.33315 1.98437,0.7983 1.98437,1.60479 0,0.93028 -0.93757,1.5975 -2.28703,1.5975 -1.36448,0 -2.39535,-0.67495 -2.5196,-1.70582 z"
       id="ios"
       style="fill:#ffffff;stroke-width:0.198489" />
  </g>
  <g
     id="g10925">
    <use
       x="0"
       y="0"
       xlink:href="#path31940"
       id="use36068"
       transform="translate(42.256707)"
       width="100%"
       height="100%" />
    <path
       id="macOS"
       style="fill:#ffffff;stroke-width:0.351414"
       class="st1"
       d="M 564.66406 411.86328 C 563.8976 411.87656 563.18924 411.98946 562.53125 412.19922 C 561.83117 412.42297 561.22479 412.73637 560.70703 413.14062 C 560.19098 413.54485 559.78346 414.01766 559.48242 414.56641 A 3.8789937 3.8789937 0 0 0 559.00586 416.35547 L 561.73633 416.35547 A 2.4254463 2.4254463 0 0 1 562.73047 414.83984 C 562.99201 414.65578 563.29224 414.51763 563.63281 414.41797 C 563.97335 414.32008 564.34459 414.26953 564.74023 414.26953 C 565.71728 414.26953 566.47091 414.48923 567.00586 414.92773 C 567.53911 415.36465 567.80664 416.01039 567.80664 416.85156 L 567.80664 417.98047 L 563.86719 418.20703 C 562.05411 418.32382 560.6715 418.74434 559.7168 419.4668 C 558.76209 420.18755 558.2832 421.18748 558.2832 422.4707 C 558.2832 423.12437 558.40428 423.72065 558.64844 424.25391 C 558.88919 424.78716 559.23055 425.24244 559.66406 425.61914 C 560.09754 425.99758 560.6137 426.286 561.22266 426.49414 C 561.8247 426.7005 562.49112 426.80469 563.21875 426.80469 C 563.71417 426.80469 564.19446 426.74361 564.66406 426.62305 A 5.0401118 5.0401118 0 0 0 567.04492 425.29297 C 567.36316 424.97473 567.62368 424.61851 567.83008 424.22461 L 567.90039 424.22461 L 567.90039 426.6582 L 570.68359 426.6582 L 570.68359 416.63867 C 570.68359 415.91274 570.54263 415.2543 570.26562 414.66602 A 4.2815149 4.2815149 0 0 0 569.08203 413.16211 A 5.4925178 5.4925178 0 0 0 567.23438 412.19922 A 8.0211746 8.0211746 0 0 0 564.81836 411.86328 C 564.76675 411.86328 564.71516 411.8624 564.66406 411.86328 z M 580.62891 411.86328 C 579.59679 411.86328 578.65953 412.04002 577.81836 412.39258 C 576.97549 412.74672 576.25706 413.25258 575.66016 413.90625 C 575.06152 414.55992 574.60394 415.34705 574.27539 416.26562 A 9.0051147 9.0051147 0 0 0 573.79102 419.34961 C 573.79102 420.50728 573.95428 421.54525 574.28125 422.4707 C 574.60818 423.39446 575.07175 424.17917 575.67383 424.82422 C 576.27417 425.46927 576.99893 425.96653 577.8418 426.31055 C 578.68467 426.65448 579.62359 426.82617 580.66602 426.82617 C 581.54328 426.82617 582.35338 426.70409 583.08789 426.46484 A 5.9001992 5.9001992 0 0 0 585.00391 425.43555 A 5.366945 5.366945 0 0 0 586.32617 423.83008 A 5.5389625 5.5389625 0 0 0 586.95703 421.74414 L 584.16992 421.74414 C 583.99115 422.60595 583.60229 423.26172 583.00195 423.70898 C 582.40161 424.15622 581.62705 424.38086 580.67578 424.38086 C 580.09608 424.38086 579.56127 424.26388 579.07617 424.03711 A 3.4609915 3.4609915 0 0 1 577.83203 423.04688 A 4.5705041 4.5705041 0 0 1 577.0293 421.46875 A 7.2350548 7.2350548 0 0 1 576.74609 419.35156 C 576.74609 418.58953 576.83843 417.89789 577.0293 417.27344 C 577.21487 416.6542 577.48165 416.12101 577.82227 415.6875 C 578.1628 415.25403 578.57281 414.91708 579.05273 414.67969 C 579.53096 414.44233 580.06843 414.32227 580.66016 414.32227 C 581.16419 414.32227 581.6109 414.39172 582.01172 414.5293 C 582.40736 414.66687 582.75687 414.85567 583.05273 415.10156 C 583.34678 415.34421 583.58674 415.63068 583.76562 415.96094 C 583.94629 416.29278 584.07217 416.65349 584.14258 417.03711 L 586.92383 417.03711 A 5.5338019 5.5338019 0 0 0 586.35938 415.04883 A 5.3566239 5.3566239 0 0 0 585.08008 413.40234 A 6.0894184 6.0894184 0 0 0 583.15039 412.2793 A 7.2195731 7.2195731 0 0 0 580.62891 411.86328 z M 541.69336 411.89258 C 541.21858 411.89258 540.76402 411.9517 540.33398 412.07227 C 539.90565 412.19283 539.50841 412.36552 539.15234 412.59766 A 4.1662632 4.1662632 0 0 0 537.53516 414.52734 L 537.48438 414.52734 L 537.48438 412.05273 L 534.69727 412.05273 L 534.69727 426.65625 L 537.45312 426.65625 L 537.45312 417.69922 C 537.45312 417.22447 537.69358 416.78359 537.83984 416.38281 C 537.98951 415.97855 538.20292 415.63158 538.47656 415.33398 C 538.75171 415.04145 539.07884 414.8114 539.45898 414.64453 C 539.84431 414.47748 540.25589 414.39258 540.70312 414.39258 C 541.1332 414.39258 541.52169 414.45945 541.86914 414.58984 C 542.21308 414.71873 542.50917 414.90405 542.75 415.14844 C 542.99416 415.39108 543.1796 415.68087 543.30859 416.02148 C 543.43937 416.36202 543.50586 416.74431 543.50586 417.16406 L 543.50586 426.66016 L 546.36914 426.66016 L 546.36914 417.59375 C 546.36914 417.12758 546.44654 416.69689 546.59961 416.30469 C 546.75117 415.90905 546.96241 415.56776 547.23242 415.28906 C 547.49888 415.00333 547.82375 414.7835 548.19531 414.62695 C 548.56873 414.47048 548.97681 414.38867 549.42578 414.38867 C 550.33922 414.38867 551.04318 414.65484 551.53516 415.17773 C 552.03058 415.70241 552.27734 416.44619 552.27734 417.4043 L 552.27734 426.66016 L 555.18164 426.66016 L 555.18164 416.70703 A 5.5905677 5.5905677 0 0 0 554.8457 414.72266 A 4.2195885 4.2195885 0 0 0 553.88281 413.20508 A 4.3313997 4.3313997 0 0 0 552.37891 412.23633 A 5.3153398 5.3153398 0 0 0 550.41992 411.89258 C 549.89869 411.89258 549.40685 411.95517 548.93555 412.08594 A 4.7270399 4.7270399 0 0 0 546.58594 413.54492 C 546.2832 413.89226 546.03537 414.28617 545.84961 414.72656 L 545.7793 414.72656 C 545.48525 413.81143 544.98456 413.10985 544.2793 412.62305 C 543.57918 412.13624 542.71515 411.89258 541.69336 411.89258 z M 567.80664 420.03125 L 567.80664 421.17188 A 3.082553 3.082553 0 0 1 566.71875 423.54688 C 566.37821 423.83941 565.97033 424.06925 565.50586 424.23438 C 565.04143 424.39765 564.53865 424.48047 564.00195 424.48047 C 563.15904 424.48047 562.48494 424.29709 561.98438 423.92383 A 1.7648992 1.7648992 0 0 1 561.22852 422.42383 C 561.22852 421.78048 561.48295 421.27484 561.99023 420.91016 C 562.49767 420.54883 563.25322 420.33734 564.25781 420.27539 L 567.80664 420.03125 z M 541.01758 435.85938 C 528.24528 435.85938 520.23438 444.76407 520.23438 458.92969 C 520.23438 473.0936 528.24528 481.96875 541.01758 481.96875 C 553.78987 481.96875 561.77148 473.09016 561.77148 458.92969 C 561.77148 444.76407 553.78817 435.85937 541.01758 435.85938 z M 583.47656 435.85938 C 574.0431 435.85938 567.42773 441.11967 567.42773 448.69531 C 567.42773 454.85008 571.16692 458.5927 579.39453 460.63281 L 585.11719 462.05469 C 590.98985 463.53747 593.5293 465.70444 593.5293 469.29102 C 593.5293 473.43492 589.34956 476.46484 583.53711 476.46484 C 577.47691 476.46484 573.05228 473.43459 572.55859 468.85547 L 566.2168 468.85547 C 566.67782 476.86632 573.30141 481.96875 583.04102 481.96875 C 593.49454 481.96875 600.0493 476.80366 600.05273 468.51758 C 600.05273 462.0222 596.27947 458.40148 587.09375 456.17383 L 582.26758 454.9707 C 576.39148 453.48792 573.98047 451.5665 573.98047 448.32227 C 573.98047 444.20757 577.81408 441.36133 583.34961 441.36133 C 588.91953 441.36133 592.66028 444.17848 593.09375 448.75586 L 599.37109 448.75586 C 599.12353 441.14923 592.69153 435.85938 583.47656 435.85938 z M 541.01758 441.54688 C 549.73887 441.54688 555.24563 448.25923 555.24219 458.92773 C 555.24219 469.56532 549.74057 476.27734 541.01758 476.27734 C 532.26533 476.27734 526.79297 469.56532 526.79297 458.92773 C 526.79297 448.25923 532.26533 441.54687 541.01758 441.54688 z "
       transform="matrix(0.26458359,0,0,0.26458359,0,-2.5e-4)" />
  </g>
  <g
     id="g10917">
    <use
       x="0"
       y="0"
       xlink:href="#path31940"
       id="use8432"
       transform="translate(-42.256438)"
       width="100%"
       height="100%" />
    <path
       id="android"
       style="fill:#ffffff;stroke-width:0.450009"
       d="M 268.92383 399.39062 C 268.38857 399.37475 267.85927 399.64571 267.57617 400.14453 L 260.00781 413.25195 C 254.23337 410.61471 247.73416 409.14453 240.74414 409.14453 C 233.75412 409.14453 227.25457 410.61471 221.48047 413.25195 L 213.91211 400.14453 A 1.5091746 1.5091746 0 0 0 211.84375 399.5957 A 1.5091746 1.5091746 0 0 0 211.29492 401.66406 L 218.76367 414.60547 C 205.8817 421.58564 197.15751 434.62461 195.7168 449.88867 L 285.77148 449.88867 C 284.33077 434.62461 275.60474 421.58564 262.71289 414.60547 L 270.18359 401.66406 C 270.60525 400.93858 270.35071 400.01738 269.63477 399.5957 C 269.41114 399.46405 269.16713 399.39784 268.92383 399.39062 z M 220.06836 429.69336 C 222.1562 429.69336 223.8418 431.38851 223.8418 433.4668 C 223.85162 435.54512 222.15654 437.24219 220.06836 437.24219 C 217.98051 437.24219 216.29297 435.54478 216.29297 433.4668 C 216.29297 431.37861 217.99005 429.69336 220.06836 429.69336 z M 261.41016 429.69336 C 263.498 429.69336 265.18359 431.38851 265.18359 433.4668 C 265.19342 435.54512 263.49834 437.24219 261.41016 437.24219 C 259.32231 437.24219 257.63477 435.54478 257.63477 433.4668 C 257.63477 431.37861 259.33185 429.69336 261.41016 429.69336 z M 268.66016 458.05859 A 1.9305454 1.9305454 0 0 0 266.73047 459.98828 A 1.9305454 1.9305454 0 0 0 268.66016 461.91992 A 1.9305454 1.9305454 0 0 0 270.5918 459.98828 A 1.9305454 1.9305454 0 0 0 268.66016 458.05859 z M 236.73828 458.20508 L 236.73828 466.39453 C 236.73828 466.39453 235.4468 464.43945 232.58203 464.43945 C 229.48326 464.43945 226.29688 466.92331 226.29688 471.26953 C 226.29688 475.24264 229.0985 478.04883 232.58203 478.04883 C 235.4576 478.04883 236.73828 476.11914 236.73828 476.11914 L 236.73828 476.96094 C 236.73828 477.35828 237.11477 477.80078 237.58008 477.80078 L 239.6582 477.80078 L 239.6582 458.20508 L 236.73828 458.20508 z M 282.85938 458.20508 L 282.85938 466.39453 C 282.85938 466.39453 281.56789 464.43945 278.70312 464.43945 C 275.60435 464.43945 272.41797 466.92331 272.41797 471.26953 C 272.41797 475.24264 275.21959 478.04883 278.70312 478.04883 C 281.57869 478.04883 282.85938 476.11914 282.85938 476.11914 L 282.85938 476.96094 C 282.85938 477.35828 283.23586 477.80078 283.70117 477.80078 L 285.7793 477.80078 L 285.7793 458.20508 L 282.85938 458.20508 z M 219.09961 464.43555 C 217.11551 464.43555 215.82362 465.35897 215.16211 466.35352 L 215.16211 464.73633 L 212.24219 464.73633 L 212.24219 476.95898 C 212.24219 477.47886 212.63532 477.80078 213.08398 477.80078 L 215.16211 477.80078 L 215.16211 470.87305 C 215.16211 469.05048 216.38079 467.11328 218.42969 467.11328 C 220.32828 467.11328 221.15039 468.74238 221.15039 470.08203 L 221.15039 476.91016 C 221.15039 477.35569 221.5091 477.80078 222.04102 477.80078 L 224.07031 477.80078 L 224.07031 469.4375 C 224.07031 467.02049 222.34239 464.43555 219.09961 464.43555 z M 258.04688 464.43555 C 254.80185 464.43555 251.23633 466.85803 251.23633 471.24609 C 251.23633 475.24441 254.27248 478.04883 258.03906 478.04883 C 262.68092 478.04883 264.94922 474.31808 264.94922 471.27148 C 264.94922 467.53327 262.02947 464.43555 258.04688 464.43555 z M 201.94922 464.43945 C 198.85045 464.43945 195.66406 466.92331 195.66406 471.26953 C 195.66406 475.24264 198.46569 478.04883 201.94922 478.04883 C 204.82479 478.04883 206.10547 476.11914 206.10547 476.11914 L 206.10547 476.96094 C 206.10547 477.35828 206.48196 477.80078 206.94727 477.80078 L 209.02539 477.80078 L 209.02539 464.73633 L 206.10547 464.73633 L 206.10547 466.39453 C 206.10547 466.39453 204.81399 464.43945 201.94922 464.43945 z M 249.30664 464.58789 C 247.38015 464.58789 246.29713 465.69452 245.79492 466.91406 L 245.79492 464.73633 L 242.875 464.73633 L 242.875 476.95898 C 242.875 477.47886 243.26618 477.80078 243.71484 477.80078 L 245.79492 477.80078 L 245.79492 471.2168 C 245.79492 469.39427 246.91249 467.45898 248.96094 467.45898 C 249.71966 467.45898 250.34766 467.70508 250.34766 467.70508 L 250.34766 464.6875 C 250.34766 464.6875 249.84395 464.58789 249.30664 464.58789 z M 267.2207 464.73633 L 267.2207 476.95898 C 267.2207 477.47886 267.61384 477.80078 268.0625 477.80078 L 270.14258 477.80078 L 270.14258 464.73633 L 267.2207 464.73633 z M 202.46875 467.11133 C 205.01941 467.11133 206.35742 469.35412 206.35742 471.26758 C 206.35742 473.39881 204.76966 475.42383 202.47461 475.42383 C 200.55667 475.42383 198.63477 473.8701 198.63477 471.24023 C 198.63477 468.86643 200.28845 467.11133 202.46875 467.11133 z M 233.10156 467.11133 C 235.65222 467.11133 236.99023 469.35412 236.99023 471.26758 C 236.99023 473.39881 235.40052 475.42383 233.10547 475.42383 C 231.18752 475.42383 229.26758 473.8701 229.26758 471.24023 C 229.26758 468.86643 230.92126 467.11133 233.10156 467.11133 z M 279.22266 467.11133 C 281.77332 467.11133 283.11133 469.35412 283.11133 471.26758 C 283.11133 473.39881 281.52357 475.42383 279.22852 475.42383 C 277.31057 475.42383 275.38867 473.8701 275.38867 471.24023 C 275.38867 468.86643 277.04235 467.11133 279.22266 467.11133 z M 258.05859 467.16211 C 260.30235 467.16211 261.97656 468.971 261.97656 471.25391 C 261.97656 473.57684 260.19885 475.36914 258.06445 475.36914 C 256.08351 475.36914 254.1582 473.75676 254.1582 471.29297 C 254.1582 468.78775 255.98944 467.16211 258.05859 467.16211 z "
       transform="matrix(0.26458359,0,0,0.26458359,0,-2.5e-4)" />
  </g>
  <g
     id="g10929">
    <use
       x="0"
       y="0"
       xlink:href="#path31940"
       id="use8678"
       transform="translate(84.514823)"
       width="100%"
       height="100%" />
    <path
       fill="currentColor"
       d="m 190.30481,111.89736 c 0.0478,0.0237 0.0865,0.0815 0.14382,0.0815 0.0523,0 0.13381,-0.0196 0.13836,-0.0719 0.01,-0.0669 -0.091,-0.11014 -0.15292,-0.13882 -0.0815,-0.0332 -0.1866,-0.0478 -0.26307,-0.005 -0.0191,0.01 -0.0382,0.0337 -0.0287,0.0528 0.0146,0.0619 0.11014,0.0523 0.16248,0.081 z m -1.04725,0.0815 c 0.0573,0 0.0956,-0.0578 0.14336,-0.0819 0.0528,-0.0282 0.14838,-0.0187 0.16749,-0.076 0.009,-0.0191 -0.01,-0.0432 -0.0287,-0.0528 -0.0765,-0.0428 -0.18205,-0.0287 -0.26307,0.005 -0.0624,0.0287 -0.16293,0.0719 -0.15292,0.13882 0.005,0.0478 0.086,0.0719 0.13381,0.0669 z m 10.5754,13.33531 c -0.17204,-0.19116 -0.25351,-0.5548 -0.34408,-0.94212 -0.0865,-0.38777 -0.1866,-0.80376 -0.50246,-1.07138 a 1.2925692,1.2925692 0 0 0 -0.19116,-0.13881 1.0604529,1.0604529 0 0 0 -0.19616,-0.0956 c 0.44011,-1.30622 0.26762,-2.60698 -0.1775,-3.78349 -0.54479,-1.44004 -1.49692,-2.69801 -2.22377,-3.55912 -0.81786,-1.02859 -1.61207,-2.00394 -1.5975,-3.44351 0.0237,-2.19555 0.24395,-6.27579 -3.62557,-6.2808 -4.89811,-0.009 -3.67381,4.9459 -3.72615,6.4674 -0.0815,1.11916 -0.3063,1.99893 -1.07638,3.09488 -0.90389,1.07593 -2.17643,2.81225 -2.77902,4.62503 -0.28673,0.8561 -0.421,1.72677 -0.29675,2.54919 -0.31085,0.27763 -0.54524,0.70317 -0.79374,0.96624 -0.20117,0.20572 -0.49291,0.28218 -0.81332,0.39733 -0.32041,0.11469 -0.6695,0.28673 -0.88477,0.69362 -0.10013,0.1866 -0.13381,0.38686 -0.13381,0.59303 0,0.1866 0.0287,0.37776 0.0573,0.56436 0.0573,0.38732 0.1197,0.75097 0.0382,0.99491 -0.24895,0.68862 -0.28218,1.16696 -0.10513,1.51604 0.18205,0.34954 0.54525,0.50247 0.96123,0.58849 0.82743,0.17204 1.9516,0.12925 2.83637,0.59804 0.94713,0.49745 1.90882,0.6745 2.67389,0.49745 0.55526,-0.1247 1.00948,-0.45968 1.23887,-0.96624 0.59804,-0.005 1.25798,-0.25851 2.31024,-0.31586 0.71273,-0.0573 1.60706,0.25351 2.6352,0.19616 0.0291,0.11015 0.0674,0.21983 0.12015,0.32042 v 0.005 c 0.39688,0.79875 1.13783,1.1624 1.92748,1.10005 0.7942,-0.0619 1.63119,-0.52613 2.31024,-1.33444 0.65084,-0.78419 1.72221,-1.10961 2.43495,-1.54016 0.35363,-0.21528 0.64082,-0.48289 0.66448,-0.87522 0.0191,-0.39232 -0.21027,-0.82742 -0.7414,-1.42046 z m -9.38933,-15.13899 c 0.46878,-1.06182 1.63573,-1.04225 2.10452,-0.0191 0.31085,0.67951 0.17249,1.47827 -0.20572,1.93249 -0.0765,-0.0382 -0.28218,-0.12425 -0.60259,-0.2344 0.0528,-0.0573 0.14837,-0.1288 0.1866,-0.21982 0.22939,-0.56436 -0.01,-1.29166 -0.4351,-1.30623 -0.34954,-0.0237 -0.66495,0.51703 -0.56437,1.10051 -0.19616,-0.0956 -0.44966,-0.16749 -0.62216,-0.21027 a 1.9051742,1.9051742 0 0 1 0.13882,-1.04316 z m -1.94659,-0.5498 c 0.48289,0 0.99491,0.67906 0.91344,1.60206 a 1.7213017,1.7213017 0 0 0 -0.4879,0.22028 c 0.0573,-0.42554 -0.15793,-0.96123 -0.45922,-0.93756 -0.40188,0.0337 -0.46879,1.01403 -0.0865,1.34399 0.0482,0.0382 0.091,-0.009 -0.28218,0.26307 -0.74596,-0.69817 -0.50201,-2.49184 0.40234,-2.49184 z m -0.65084,2.90373 c 0.29674,-0.22028 0.65084,-0.47879 0.6745,-0.50246 0.22484,-0.21073 0.64583,-0.67951 1.33444,-0.67951 0.33999,0 0.74642,0.11014 1.23887,0.426 0.30129,0.19571 0.54069,0.21027 1.08139,0.44466 0.40142,0.16749 0.65538,0.46424 0.502,0.87067 -0.12425,0.33952 -0.52613,0.68861 -1.08594,0.86565 -0.53068,0.17204 -0.94667,0.76508 -1.82689,0.71274 a 1.3335309,1.3335309 0 0 1 -0.45968,-0.10013 c -0.38231,-0.16794 -0.58302,-0.49791 -0.95623,-0.71774 -0.41143,-0.22984 -0.63126,-0.49746 -0.70317,-0.73185 -0.0669,-0.23439 0,-0.43055 0.20071,-0.58848 z m 0.15793,15.97507 c -0.12926,1.67942 -2.09952,1.64575 -3.60144,0.86156 -1.43048,-0.75552 -3.28149,-0.31086 -3.65925,-1.04771 -0.11469,-0.22484 -0.11469,-0.6076 0.12425,-1.26253 v -0.01 c 0.11469,-0.36319 0.0287,-0.76507 -0.0287,-1.14283 -0.0574,-0.3732 -0.0865,-0.71774 0.0432,-0.95668 0.16703,-0.32041 0.40643,-0.43556 0.70772,-0.5407 0.49245,-0.17704 0.56436,-0.16248 0.93757,-0.47333 0.26307,-0.27308 0.45422,-0.61716 0.68406,-0.86111 0.24395,-0.26306 0.47789,-0.38731 0.84654,-0.32997 0.38732,0.0573 0.72229,0.32542 1.04726,0.76508 l 0.93756,1.70309 c 0.45468,0.95168 2.06174,2.3148 1.96161,3.29515 z m -0.0669,-1.23841 c -0.19571,-0.31586 -0.45923,-0.65084 -0.68862,-0.93757 0.33953,0 0.67906,-0.10514 0.79876,-0.42555 0.11014,-0.29674 0,-0.71273 -0.35409,-1.19107 -0.64583,-0.87067 -1.8319,-1.55473 -1.8319,-1.55473 -0.64583,-0.40188 -1.00948,-0.89433 -1.17651,-1.43002 -0.16749,-0.53568 -0.14382,-1.11461 -0.0146,-1.68398 0.24896,-1.09504 0.88978,-2.16186 1.30122,-2.83136 0.10969,-0.0815 0.0382,0.15292 -0.41645,0.99491 -0.40643,0.77008 -1.16695,2.54919 -0.12425,3.94143 0.0287,-0.99036 0.26307,-1.99939 0.65994,-2.94196 0.57438,-1.31078 1.78411,-3.58233 1.87969,-5.39056 0.0528,0.0382 0.22028,0.15292 0.29674,0.19616 0.22029,0.12926 0.38778,0.32041 0.6026,0.49291 0.59349,0.47788 1.36357,0.43965 2.02851,0.0573 0.29629,-0.16749 0.53569,-0.35909 0.76007,-0.43055 0.47379,-0.14837 0.85155,-0.41144 1.06682,-0.71774 0.36866,1.45414 1.22931,3.55411 1.77956,4.5777 0.29128,0.54524 0.87522,1.69763 1.12872,3.09033 a 1.8933408,1.8933408 0 0 1 0.52113,0.0665 c 0.65994,-1.70765 -0.55981,-3.5491 -1.11416,-4.06067 -0.22484,-0.22028 -0.23439,-0.31586 -0.12471,-0.31085 0.60305,0.53568 1.39725,1.61161 1.68398,2.8218 0.13381,0.55526 0.15793,1.13328 0.0191,1.70765 0.78419,0.32542 1.71721,0.8561 1.46825,1.66441 -0.10468,-0.005 -0.15292,0 -0.20071,0 0.15292,-0.48289 -0.18661,-0.84199 -1.09049,-1.24842 -0.93757,-0.41098 -1.72222,-0.41098 -1.8319,0.59804 -0.57893,0.20117 -0.87567,0.70317 -1.02405,1.30622 -0.1338,0.53523 -0.17203,1.18106 -0.21027,1.90791 -0.0241,0.36865 -0.17203,0.8611 -0.32541,1.38723 -1.53516,1.0955 -3.66835,1.57384 -5.46702,0.34454 z m 12.31217,-0.55026 c -0.0432,0.80376 -1.97071,0.95214 -3.02297,2.22422 -0.63172,0.75097 -1.40635,1.16741 -2.08586,1.21975 -0.67906,0.0528 -1.26754,-0.22938 -1.61162,-0.923 -0.22483,-0.53114 -0.11515,-1.10506 0.0523,-1.73632 0.1775,-0.67906 0.44011,-1.37768 0.47334,-1.94204 0.0387,-0.72684 0.0819,-1.36312 0.20117,-1.85102 0.12425,-0.4929 0.31586,-0.82287 0.65538,-1.00947 0.0141,-0.009 0.0337,-0.0141 0.0478,-0.0237 0.0382,0.63127 0.34909,1.27209 0.89934,1.4109 0.60259,0.15793 1.46825,-0.35864 1.8369,-0.77963 0.4301,-0.0141 0.75097,-0.0432 1.08094,0.24394 0.47333,0.40644 0.33952,1.44914 0.81786,1.98983 0.50702,0.55526 0.6695,0.93302 0.65539,1.17651 z M 188.0328,113.1121 c 0.0956,0.091 0.22484,0.21528 0.38277,0.33953 0.31586,0.24896 0.75551,0.50702 1.30622,0.50702 0.55435,0 1.07593,-0.28219 1.52059,-0.51658 0.23439,-0.12425 0.52158,-0.33452 0.70818,-0.49745 0.1866,-0.16249 0.28218,-0.3013 0.14792,-0.31541 -0.13381,-0.0146 -0.12425,0.12425 -0.28673,0.24395 -0.21073,0.15292 -0.46424,0.35409 -0.66495,0.46878 -0.35409,0.20072 -0.93301,0.4879 -1.43002,0.4879 -0.49745,0 -0.89478,-0.22984 -1.19107,-0.46423 -0.14837,-0.11924 -0.27308,-0.23894 -0.36866,-0.32997 -0.0714,-0.0669 -0.091,-0.21983 -0.20526,-0.23439 -0.0674,-0.005 -0.0865,0.17705 0.081,0.31085 z"
       id="path57764"
       style="fill:#ffffff;stroke-width:0.0478319" />
  </g>
  <text
     xml:space="preserve"
     style="font-style:normal;font-variant:normal;font-weight:400;font-stretch:normal;font-size:17.3608px;line-height:1.25;font-family:sans-serif;-inkscape-font-specification:sans-serif;fill:#4d4d4d;stroke-width:0.434022"
     x="84.187004"
     y="156.862"
     id="text60297"><tspan
       id="tspan60295"
       style="font-style:normal;font-variant:normal;font-weight:400;font-stretch:normal;font-family:'Roboto Condensed';-inkscape-font-specification:'Roboto Condensed, ';fill:#4d4d4d;stroke-width:0.434022"
       x="84.187004"
       y="156.862">weekly builds since 2017</tspan></text>
  <g
     id="g10937">
    <use
       x="0"
       y="0"
       xlink:href="#path31940"
       id="use56971-8"
       transform="translate(169.02883,2.08e-4)"
       width="100%"
       height="100%" />
    <path
       id="wasm"
       style="fill:#ffffff;fill-opacity:1;stroke-width:0.0322553"
       d="m 265.42543,109.298 v 19.74 h 19.74 v -19.74 h -7.613 v 0.106 a 2.2635,2.2635 0 1 1 -4.527,0 v -0.106 z m 4.585,10.638 h 1.308 l 0.893,4.757 h 0.017 l 1.073,-4.757 h 1.224 l 0.97,4.815 h 0.018 l 1.018,-4.815 h 1.284 l -1.668,6.99 h -1.298 l -0.962,-4.757 h -0.025 l -1.029,4.757 h -1.322 z m 9.28,0 h 2.062 l 2.048,6.99 h -1.35 l -0.445,-1.556 h -2.35 l -0.343,1.556 h -1.314 z m 0.785,1.723 -0.57,2.564 h 1.775 l -0.655,-2.564 z" />
  </g>
  <style
     type="text/css"
     id="style57009">.st1{fill:#515151}</style>
</svg>
